<?xml version="1.0" encoding="utf-8"?>
<!-- Generator: Adobe Illustrator 16.0.0, SVG Export Plug-In . SVG Version: 6.00 Build 0)  -->
<!DOCTYPE svg PUBLIC "-//W3C//DTD SVG 1.1//EN" "http://www.w3.org/Graphics/SVG/1.1/DTD/svg11.dtd">
<svg version="1.1" id="Layer_1" xmlns="http://www.w3.org/2000/svg" xmlns:xlink="http://www.w3.org/1999/xlink" x="0px" y="0px"
	 width="500px" height="64px" viewBox="0 0 500 64" enable-background="new 0 0 500 64" xml:space="preserve">
<rect x="0.941" y="3.074" fill="#676767" width="11.836" height="60.003"/>
<g>
	<path fill="#676767" d="M26.932,46.027c6.786,4.801,14.153,4.966,16.884,4.718c3.474-0.249,6.456-2.732,6.123-5.958
		c-0.248-3.395-2.814-4.885-6.123-6.043c-9.27-3.394-17.547-8.112-17.547-18.042c0-9.932,6.871-17.545,16.719-18.043
		c3.061-0.163,7.116-0.163,14.731,2.484l-1.489,11.421c-6.539-2.647-10.263-2.565-12.084-2.482c-4.22,0.248-6.125,3.31-5.874,6.62
		c0.331,3.311,3.225,4.8,6.62,5.958c9.185,3.395,17.13,8.69,17.13,18.127c0,9.847-6.786,17.378-17.876,17.959
		c-3.312,0.247-10.675-0.167-18.703-4.306L26.932,46.027z"/>
	<path fill="#676767" d="M91.564,0.923h1.242l24.911,61.327h-13.324l-2.4-6.374H82.378l-2.316,6.374h-13.41L91.564,0.923z
		 M97.607,44.787l-5.379-15.395l-5.545,15.395H97.607z"/>
	<path fill="#676767" d="M145.604,0.923h1.241l24.912,61.327h-13.324l-2.401-6.374h-19.613l-2.317,6.374h-13.407L145.604,0.923z
		 M151.646,44.787l-5.378-15.395l-5.545,15.395H151.646z"/>
	<path fill="#676767" d="M205.52,14.248c-23.42,0-23.42,36.083,0,36.083c5.131,0,9.186-1.49,11.423-2.649l1.571,12.249
		c-3.642,1.491-8.856,2.482-12.994,2.482c-40.139,0-40.055-60.083,0-60.083c4.138,0,8.11,0.744,11.669,2.317l-1.405,12.167
		C213.548,15.653,210.651,14.248,205.52,14.248"/>
	<polygon fill="#676767" points="261.215,62.25 261.215,14.909 246.482,14.909 246.482,3.157 287.784,3.157 287.784,14.909 
		273.05,14.909 273.05,62.25 	"/>
	<path fill="#676767" d="M323.286,2.082c40.718,0,40.718,60.995,0,60.995C282.566,63.077,282.566,2.082,323.286,2.082
		 M323.286,14.248c-23.67,0-23.67,36.581,0,36.581C346.954,50.829,346.954,14.248,323.286,14.248"/>
	<path fill="#676767" d="M384.521,0.923h1.242l24.913,61.327h-13.326l-2.4-6.374h-19.614l-2.317,6.374h-13.407L384.521,0.923z
		 M390.565,44.787l-5.38-15.395l-5.547,15.395H390.565z"/>
	<path fill="#676767" d="M417.708,46.027c6.785,4.801,14.148,4.966,16.883,4.718c3.475-0.249,6.454-2.732,6.124-5.958
		c-0.248-3.395-2.814-4.885-6.124-6.043c-9.269-3.394-17.546-8.112-17.546-18.042c0-9.932,6.867-17.545,16.718-18.043
		c3.062-0.163,7.117-0.163,14.731,2.484l-1.49,11.421c-6.537-2.647-10.263-2.565-12.082-2.482c-4.22,0.248-6.125,3.31-5.877,6.62
		c0.332,3.311,3.228,4.8,6.621,5.958c9.186,3.395,17.13,8.69,17.13,18.127c0,9.847-6.786,17.378-17.874,17.959
		c-3.312,0.247-10.676-0.167-18.705-4.306L417.708,46.027z"/>
	<polygon fill="#676767" points="472.492,62.25 472.492,14.909 457.76,14.909 457.76,3.157 499.059,3.157 499.059,14.909 
		484.327,14.909 484.327,62.25 	"/>
</g>
</svg>
